<?xml version="1.0" encoding="UTF-8"?>
<svg width="226px" height="43px" viewBox="0 0 226 43" version="1.1" xmlns="http://www.w3.org/2000/svg" xmlns:xlink="http://www.w3.org/1999/xlink">
    <title>2EBE691B-C700-44D2-A5C2-6ED421C72E04</title>
    <defs>
        <polygon id="path-1" points="0 42.7819217 225.626409 42.7819217 225.626409 0.000120000005 0 0.000120000005"></polygon>
    </defs>
    <g id="Design" stroke="none" stroke-width="1" fill="none" fill-rule="evenodd">
        <g id="Homepage@2x" transform="translate(-81.000000, -69.000000)">
            <g id="DFD-logo-black" transform="translate(81.000000, 69.000000)">
                <path d="M61.0831224,32.5405213 C62.6485225,32.5405213 63.6877225,31.6771213 63.6877225,30.1525212 L63.6877225,30.1249212 C63.6877225,28.6129211 62.6485225,27.7363211 61.0831224,27.7363211 L60.0175224,27.7363211 L60.0175224,32.5405213 L61.0831224,32.5405213 Z M57.3997223,25.414921 L61.0429224,25.414921 C64.4173226,25.414921 66.3733226,27.3583211 66.3733226,30.0835212 L66.3733226,30.1111212 C66.3733226,32.8363213 64.3897226,34.8613214 60.9889224,34.8613214 L57.3997223,34.8613214 L57.3997223,25.414921 Z" id="Fill-1" fill="#FFFFFF"></path>
                <path d="M67.3374027,30.7182612 L67.3374027,25.414861 L69.9954028,25.414861 L69.9954028,30.6642612 C69.9954028,32.0274613 70.6836028,32.6748613 71.7372029,32.6748613 C72.7890029,32.6748613 73.4772029,32.0550613 73.4772029,30.7314612 L73.4772029,25.414861 L76.135803,25.414861 L76.135803,30.6510612 C76.135803,33.7002613 74.395203,35.0364614 71.7096028,35.0364614 C69.0240027,35.0364614 67.3374027,33.6738613 67.3374027,30.7182612" id="Fill-3" fill="#FFFFFF"></path>
                <path d="M81.9987033,32.7561013 C82.7949033,32.7561013 83.2545033,32.4453013 83.2545033,31.8927013 L83.2545033,31.8651013 C83.2545033,31.3527012 82.8489033,31.0161012 81.9717033,31.0161012 L79.9749032,31.0161012 L79.9749032,32.7561013 L81.9987033,32.7561013 Z M81.6207032,29.1801012 C82.4169033,29.1801012 82.8615033,28.9107011 82.8615033,28.3563011 L82.8615033,28.3299011 C82.8615033,27.8169011 82.4577033,27.5199011 81.6747032,27.5199011 L79.9749032,27.5199011 L79.9749032,29.1801012 L81.6207032,29.1801012 Z M77.4243031,25.415101 L82.2681033,25.415101 C83.4561033,25.415101 84.2931033,25.711501 84.8457034,26.265901 C85.2237034,26.6433011 85.4529034,27.1425011 85.4529034,27.7905011 L85.4529034,27.8169011 C85.4529034,28.9107011 84.8331034,29.5581012 83.9955033,29.9217012 C85.1421034,30.2997012 85.8717034,30.9471012 85.8717034,32.2299013 L85.8717034,32.2575013 C85.8717034,33.8763013 84.5499034,34.8615014 82.2957033,34.8615014 L77.4243031,34.8615014 L77.4243031,25.415101 Z" id="Fill-5" fill="#FFFFFF"></path>
                <path d="M92.3686237,31.1365812 L91.3156236,28.4509811 L90.2494236,31.1365812 L92.3686237,31.1365812 Z M90.0742236,25.348381 L92.5984237,25.348381 L96.6190238,34.8613814 L93.8116237,34.8613814 L93.1246237,33.1747813 L89.4808236,33.1747813 L88.8064235,34.8613814 L86.0524234,34.8613814 L90.0742236,25.348381 Z" id="Fill-7" fill="#FFFFFF"></path>
                <mask id="mask-2" fill="white">
                    <use xlink:href="#path-1"></use>
                </mask>
                <g id="Clip-10"></g>
                <polygon id="Fill-9" fill="#FFFFFF" mask="url(#mask-2)" points="97.3260039 34.8613214 99.957604 34.8613214 99.957604 25.414921 97.3260039 25.414921"></polygon>
                <polygon id="Fill-11" fill="#FFFFFF" mask="url(#mask-2)" points="104.889544 25.414921 112.447144 25.414921 112.447144 27.7087211 107.506744 27.7087211 107.506744 29.3149212 111.974344 29.3149212 111.974344 31.4869213 107.506744 31.4869213 107.506744 34.8613214 104.889544 34.8613214"></polygon>
                <path d="M113.246765,30.7182612 L113.246765,25.414861 L115.905965,25.414861 L115.905965,30.6642612 C115.905965,32.0274613 116.592965,32.6748613 117.646565,32.6748613 C118.698365,32.6748613 119.386565,32.0550613 119.386565,30.7314612 L119.386565,25.414861 L122.045165,25.414861 L122.045165,30.6510612 C122.045165,33.7002613 120.304565,35.0364614 117.618965,35.0364614 C114.934565,35.0364614 113.246765,33.6738613 113.246765,30.7182612" id="Fill-12" fill="#FFFFFF" mask="url(#mask-2)"></path>
                <polygon id="Fill-13" fill="#FFFFFF" mask="url(#mask-2)" points="125.640545 27.7088411 122.807345 27.7088411 122.807345 25.415041 131.092745 25.415041 131.092745 27.7088411 128.258945 27.7088411 128.258945 34.8614414 125.640545 34.8614414"></polygon>
                <path d="M131.853785,30.7182612 L131.853785,25.414861 L134.511785,25.414861 L134.511785,30.6642612 C134.511785,32.0274613 135.200585,32.6748613 136.253585,32.6748613 C137.305385,32.6748613 137.993585,32.0550613 137.993585,30.7314612 L137.993585,25.414861 L140.652186,25.414861 L140.652186,30.6510612 C140.652186,33.7002613 138.912186,35.0364614 136.225985,35.0364614 C133.540385,35.0364614 131.853785,33.6738613 131.853785,30.7182612" id="Fill-14" fill="#FFFFFF" mask="url(#mask-2)"></path>
                <path d="M146.286006,29.9494812 C147.175806,29.9494812 147.689406,29.5174812 147.689406,28.8292811 L147.689406,28.8028811 C147.689406,28.0600811 147.149406,27.6826811 146.272806,27.6826811 L144.558606,27.6826811 L144.558606,29.9494812 L146.286006,29.9494812 Z M141.941406,25.414681 L146.407206,25.414681 C147.850806,25.414681 148.850406,25.792681 149.484006,26.4406811 C150.037806,26.9806811 150.321006,27.7090811 150.321006,28.6402811 L150.321006,28.6666811 C150.321006,30.1114812 149.550606,31.0696812 148.377606,31.5682813 L150.630606,34.8616814 L147.607806,34.8616814 L145.705206,32.0002813 L145.678806,32.0002813 L144.558606,32.0002813 L144.558606,34.8616814 L141.941406,34.8616814 L141.941406,25.414681 Z" id="Fill-15" fill="#FFFFFF" mask="url(#mask-2)"></path>
                <polygon id="Fill-16" fill="#FFFFFF" mask="url(#mask-2)" points="151.379586 25.414921 158.976186 25.414921 158.976186 27.6415211 153.970386 27.6415211 153.970386 29.0725212 158.504586 29.0725212 158.504586 31.1365212 153.970386 31.1365212 153.970386 32.6347213 159.044586 32.6347213 159.044586 34.8613214 151.379586 34.8613214"></polygon>
                <path d="M167.269027,32.5405213 C168.834427,32.5405213 169.873627,31.6771213 169.873627,30.1525212 L169.873627,30.1249212 C169.873627,28.6129211 168.834427,27.7363211 167.269027,27.7363211 L166.202827,27.7363211 L166.202827,32.5405213 L167.269027,32.5405213 Z M163.585027,25.414921 L167.228827,25.414921 C170.602627,25.414921 172.558627,27.3583211 172.558627,30.0835212 L172.558627,30.1111212 C172.558627,32.8363213 170.575027,34.8613214 167.174827,34.8613214 L163.585027,34.8613214 L163.585027,25.414921 Z" id="Fill-17" fill="#FFFFFF" mask="url(#mask-2)"></path>
                <polygon id="Fill-18" fill="#FFFFFF" mask="url(#mask-2)" points="173.698207 34.8613214 176.330407 34.8613214 176.330407 25.414921 173.698207 25.414921"></polygon>
                <path d="M177.074707,33.4581013 L178.532107,31.7175013 C179.463907,32.4591013 180.503107,32.8509013 181.595707,32.8509013 C182.297107,32.8509013 182.675107,32.6073013 182.675107,32.2029013 L182.675107,32.1753013 C182.675107,31.7847013 182.364307,31.5687013 181.083307,31.2711012 C179.071507,30.8133012 177.520507,30.2457012 177.520507,28.3023011 L177.520507,28.2759011 C177.520507,26.5209011 178.910107,25.253101 181.176907,25.253101 C182.783107,25.253101 184.037707,25.685101 185.063107,26.5077011 L183.755107,28.3563011 C182.891107,27.7491011 181.946707,27.4257011 181.110307,27.4257011 C180.475507,27.4257011 180.164107,27.6957011 180.164107,28.0323011 L180.164107,28.0599011 C180.164107,28.4919011 180.488107,28.6803011 181.798507,28.9779012 C183.970507,29.4501012 185.319907,30.1521012 185.319907,31.9191013 L185.319907,31.9461013 C185.319907,33.8763013 183.795307,35.0229014 181.500907,35.0229014 C179.827507,35.0229014 178.235707,34.4967014 177.074707,33.4581013" id="Fill-19" fill="#FFFFFF" mask="url(#mask-2)"></path>
                <polygon id="Fill-20" fill="#FFFFFF" mask="url(#mask-2)" points="188.361607 27.7088411 185.527807 27.7088411 185.527807 25.415041 193.813208 25.415041 193.813208 27.7088411 190.980008 27.7088411 190.980008 34.8614414 188.361607 34.8614414"></polygon>
                <path d="M199.041488,29.9494812 C199.931288,29.9494812 200.445488,29.5174812 200.445488,28.8292811 L200.445488,28.8028811 C200.445488,28.0600811 199.904888,27.6826811 199.028888,27.6826811 L197.314088,27.6826811 L197.314088,29.9494812 L199.041488,29.9494812 Z M194.696888,25.414681 L199.162688,25.414681 C200.606888,25.414681 201.605888,25.792681 202.239488,26.4406811 C202.793888,26.9806811 203.077088,27.7090811 203.077088,28.6402811 L203.077088,28.6666811 C203.077088,30.1114812 202.306688,31.0696812 201.133688,31.5682813 L203.386088,34.8616814 L200.363288,34.8616814 L198.461288,32.0002813 L198.434288,32.0002813 L197.314088,32.0002813 L197.314088,34.8616814 L194.696888,34.8616814 L194.696888,25.414681 Z" id="Fill-21" fill="#FFFFFF" mask="url(#mask-2)"></path>
                <polygon id="Fill-22" fill="#FFFFFF" mask="url(#mask-2)" points="204.188408 34.8613214 206.820008 34.8613214 206.820008 25.414921 204.188408 25.414921"></polygon>
                <path d="M207.955928,30.1651212 L207.955928,30.1375212 C207.955928,27.3847211 210.075128,25.225921 212.936528,25.225921 C214.865529,25.225921 216.107529,26.035321 216.943329,27.1963211 L214.972929,28.7209211 C214.433529,28.0471211 213.813128,27.6151211 212.908928,27.6151211 C211.587128,27.6151211 210.654728,28.7341211 210.654728,30.1111212 L210.654728,30.1375212 C210.654728,31.5553213 211.587128,32.6617213 212.908928,32.6617213 C213.893528,32.6617213 214.473729,32.2027213 215.041329,31.5145213 L217.011129,32.9185213 C216.120729,34.1467214 214.920129,35.0503214 212.827928,35.0503214 C210.129128,35.0503214 207.955928,32.9851213 207.955928,30.1651212" id="Fill-23" fill="#FFFFFF" mask="url(#mask-2)"></path>
                <polygon id="Fill-24" fill="#FFFFFF" mask="url(#mask-2)" points="220.175109 27.7088411 217.341309 27.7088411 217.341309 25.415041 225.626709 25.415041 225.626709 27.7088411 222.793509 27.7088411 222.793509 34.8614414 220.175109 34.8614414"></polygon>
                <path d="M67.6883427,13.9926606 L67.6883427,16.4436607 L67.0757427,16.4436607 C66.6767426,16.4436607 66.3713426,16.3212606 66.0959426,16.1064606 C65.7893426,18.0672607 64.6097426,19.4616608 61.9277425,19.4616608 C58.8335423,19.4616608 57.7007423,17.5614607 57.7007423,15.0504606 L57.7007423,13.7322605 L60.1511424,13.7322605 L60.1511424,14.8812606 C60.1511424,16.2750606 60.7793424,17.0106607 61.9745425,17.0106607 C63.3383425,17.0106607 63.7361425,16.2750606 63.7361425,14.8350606 L63.7361425,6.71646027 L66.1721426,6.71646027 L66.1721426,12.4908605 C66.1721426,13.5486605 66.4775426,13.9926606 67.3511427,13.9926606 L67.6883427,13.9926606 Z" id="Fill-25" fill="#FFFFFF" mask="url(#mask-2)"></path>
                <path d="M68.3328027,19.5229208 L70.7838028,19.5229208 L70.7838028,17.3623207 L68.3328027,17.3623207 L68.3328027,19.5229208 Z M72.8676029,13.9927206 L72.8676029,16.4437207 L71.7036028,16.4437207 C70.6308028,16.4437207 70.0188028,16.0453206 69.6504028,15.4321206 C69.2676028,16.0909206 68.5944027,16.4437207 67.8432027,16.4437207 L67.0770027,16.4437207 L67.0770027,13.9927206 L67.5054027,13.9927206 C68.3952027,13.9927206 68.7318027,13.6399205 68.7318027,12.5995205 L68.7318027,10.5151204 L71.1828028,10.5151204 L71.1828028,12.5833205 C71.1828028,13.4557205 71.3514028,13.9927206 72.4080029,13.9927206 L72.8676029,13.9927206 Z" id="Fill-26" fill="#FFFFFF" mask="url(#mask-2)"></path>
                <path d="M76.9746031,8.24772033 L79.4262032,8.24772033 L79.4262032,6.08772024 L76.9746031,6.08772024 L76.9746031,8.24772033 Z M77.8938031,12.8749205 C77.8938031,12.1537205 77.4654031,11.6947205 76.7604031,11.6947205 C76.041003,11.6947205 75.642603,12.2005205 75.642603,12.8899205 C75.642603,13.5487205 76.009803,14.0701206 76.7604031,14.0701206 C77.4804031,14.0701206 77.8938031,13.5793205 77.8938031,12.8749205 L77.8938031,12.8749205 Z M73.9878029,8.24772033 L76.438803,8.24772033 L76.438803,6.08772024 L73.9878029,6.08772024 L73.9878029,8.24772033 Z M81.2028032,13.9927206 L81.2028032,16.4437207 L78.5526031,16.4437207 C77.6184031,16.4437207 76.8528031,16.1065206 76.331403,15.5401206 C75.795603,16.1065206 75.045603,16.4437207 74.1558029,16.4437207 L72.2568029,16.4437207 L72.2568029,13.9927206 L73.8966029,13.9927206 C73.5126029,13.5643205 73.2834029,12.9349205 73.2834029,12.1849205 C73.2834029,10.5613204 74.355603,9.27492037 76.715403,9.27492037 C79.0890031,9.27492037 80.1612032,10.4995204 80.1612032,12.0625205 C80.1612032,12.9049205 79.9008032,13.5793205 79.5180032,13.9927206 L81.2028032,13.9927206 Z" id="Fill-27" fill="#FFFFFF" mask="url(#mask-2)"></path>
                <path d="M83.7324033,9.33492037 L86.1834034,9.33492037 L86.1834034,7.17552029 L83.7324033,7.17552029 L83.7324033,9.33492037 Z M80.7450032,9.33492037 L83.1960033,9.33492037 L83.1960033,7.17552029 L80.7450032,7.17552029 L80.7450032,9.33492037 Z M86.3814034,13.9927206 L86.3814034,16.4437207 L85.2186034,16.4437207 C84.1458033,16.4437207 83.5326033,16.0453206 83.1654033,15.4321206 C82.7814033,16.0909206 82.1088033,16.4437207 81.3570032,16.4437207 L80.5920032,16.4437207 L80.5920032,13.9927206 L81.0204032,13.9927206 C81.9090033,13.9927206 82.2468033,13.6399205 82.2468033,12.5995205 L82.2468033,10.5151204 L84.6978034,10.5151204 L84.6978034,12.5833205 C84.6978034,13.4557205 84.8658034,13.9927206 85.9224034,13.9927206 L86.3814034,13.9927206 Z" id="Fill-28" fill="#FFFFFF" mask="url(#mask-2)"></path>
                <polygon id="Fill-29" fill="#FFFFFF" mask="url(#mask-2)" points="85.7706034 16.4437207 90.9018036 16.4437207 90.9018036 13.9927206 85.7706034 13.9927206"></polygon>
                <polygon id="Fill-30" fill="#FFFFFF" mask="url(#mask-2)" points="90.2904036 16.4437207 95.4216038 16.4437207 95.4216038 13.9927206 90.2904036 13.9927206"></polygon>
                <path d="M107.908324,13.9926606 L107.908324,16.4436607 L107.356324,16.4436607 C105.946924,16.4436607 105.379924,16.0452606 105.058324,15.4020606 C104.721124,16.0758606 104.139724,16.5348607 103.036924,16.5348607 C101.948524,16.5348607 101.382124,16.0602606 101.090524,15.5094606 C100.783924,16.0908606 100.140724,16.5348607 99.1153239,16.5348607 C98.0887239,16.5348607 97.4905239,16.0908606 97.1995239,15.5400606 C96.8779238,15.9996606 96.2809238,16.4436607 95.4535238,16.4436607 L94.8103238,16.4436607 L94.8103238,13.9926606 L95.1781238,13.9926606 C96.0505238,13.9926606 96.3115238,13.5486605 96.3115238,12.6906605 L96.3115238,11.6946605 L98.7625239,11.6946605 L98.7625239,13.3182605 C98.7625239,13.7778605 98.9311239,14.1300606 99.450724,14.1300606 C99.972124,14.1300606 100.125124,13.7778605 100.125124,13.3182605 L100.125124,11.0820604 L102.576124,11.0820604 L102.576124,13.3032605 C102.576124,13.7778605 102.729724,14.1300606 103.250524,14.1300606 C103.771324,14.1300606 103.924324,13.7778605 103.924324,13.3032605 L103.924324,10.5150604 L106.375924,10.5150604 L106.375924,12.5682605 C106.375924,13.6554605 106.713124,13.9926606 107.601724,13.9926606 L107.908324,13.9926606 Z" id="Fill-31" fill="#FFFFFF" mask="url(#mask-2)"></path>
                <path d="M112.874104,14.1151206 C112.874104,13.4719205 112.613104,12.9967205 111.816304,12.9967205 C111.051304,12.9967205 110.744704,13.5025205 110.744704,14.1151206 C110.744704,14.7889206 111.035704,15.2485206 111.801304,15.2485206 C112.583704,15.2485206 112.874104,14.7889206 112.874104,14.1151206 L112.874104,14.1151206 Z M116.351105,13.9927206 L116.351105,16.4437207 L115.722905,16.4437207 C115.340705,16.4437207 114.972905,16.3975207 114.605105,16.3057206 C114.038105,17.0407207 113.103304,17.5465207 111.725104,17.5465207 C110.177704,17.5465207 109.305304,16.8877207 108.860104,15.9997206 C108.661504,16.3057206 108.324304,16.4437207 107.987104,16.4437207 L107.297704,16.4437207 L107.297704,13.9927206 L107.542504,13.9927206 C107.848504,13.9927206 108.094504,13.9615206 108.293704,13.7323205 C108.569104,13.4107205 108.661504,12.8281205 108.906304,12.2767205 C109.427104,11.1127204 110.438104,10.5919204 111.878704,10.5919204 C113.885705,10.5919204 115.248305,11.7259205 115.294505,13.9309206 C115.478705,13.9777206 115.677905,13.9927206 115.907105,13.9927206 L116.351105,13.9927206 Z" id="Fill-32" fill="#FFFFFF" mask="url(#mask-2)"></path>
                <path d="M121.224305,13.9926606 L121.224305,16.4436607 L120.520505,16.4436607 C119.172305,16.4436607 118.512905,16.0302606 118.145105,15.4020606 C117.762905,16.0302606 117.118505,16.4436607 116.352905,16.4436607 L115.740305,16.4436607 L115.740305,13.9926606 L116.046905,13.9926606 C116.936105,13.9926606 117.242105,13.5798605 117.242105,12.5682605 L117.242105,5.53686022 L119.693105,5.53686022 L119.693105,12.5832605 C119.693105,13.4556605 119.861705,13.9926606 120.917705,13.9926606 L121.224305,13.9926606 Z" id="Fill-33" fill="#FFFFFF" mask="url(#mask-2)"></path>
                <path d="M120.612005,13.9926606 L121.055405,13.9926606 C121.439405,13.9926606 121.745405,13.9308606 121.945205,13.6554605 C122.113205,13.4106605 122.174405,13.0122605 122.174405,12.2310605 L122.174405,5.53686022 L124.624805,5.53686022 L124.624805,12.3840605 C124.624805,13.7622605 124.472405,14.4828606 124.104005,15.1104606 C123.568805,16.0152606 122.634605,16.4436607 121.530605,16.4436607 L120.612005,16.4436607 L120.612005,13.9926606 Z" id="Fill-34" fill="#FFFFFF" mask="url(#mask-2)"></path>
                <path d="M134.646605,21.5293209 L137.097605,21.5293209 L137.097605,19.3693208 L134.646605,19.3693208 L134.646605,21.5293209 Z M131.658605,21.5293209 L134.109605,21.5293209 L134.109605,19.3693208 L131.658605,19.3693208 L131.658605,21.5293209 Z M140.344806,13.9927206 L140.344806,16.4437207 L139.732206,16.4437207 C139.609206,16.4437207 139.440606,16.3975207 139.256406,16.3369206 C139.074006,17.5465207 138.138605,18.5887207 136.254605,18.5887207 L132.914405,18.5887207 C130.050005,18.5887207 129.330005,16.7803207 129.330005,15.0037206 L129.330005,13.4407205 L131.734805,13.4407205 L131.734805,14.4673206 C131.734805,15.6625206 132.210605,16.1371206 133.420205,16.1371206 L135.886805,16.1371206 C136.560605,16.1371206 136.898405,15.7849206 136.898405,15.1417206 C136.898405,14.7283206 136.760405,14.3143206 136.514405,13.9015206 L135.795605,12.6751205 L138.490806,12.6751205 L138.904806,13.2721205 C139.226406,13.7485205 139.548606,13.9927206 140.038806,13.9927206 L140.344806,13.9927206 Z" id="Fill-35" fill="#FFFFFF" mask="url(#mask-2)"></path>
                <polygon id="Fill-36" fill="#FFFFFF" mask="url(#mask-2)" points="139.733406 16.4437207 144.864606 16.4437207 144.864606 13.9927206 139.733406 13.9927206"></polygon>
                <polygon id="Fill-37" fill="#FFFFFF" mask="url(#mask-2)" points="144.253206 16.4437207 149.384406 16.4437207 149.384406 13.9927206 144.253206 13.9927206"></polygon>
                <polygon id="Fill-38" fill="#FFFFFF" mask="url(#mask-2)" points="148.773606 16.4437207 153.904806 16.4437207 153.904806 13.9927206 148.773606 13.9927206"></polygon>
                <polygon id="Fill-39" fill="#FFFFFF" mask="url(#mask-2)" points="153.294606 16.4437207 158.425806 16.4437207 158.425806 13.9927206 153.294606 13.9927206"></polygon>
                <path d="M158.901006,19.5229208 L161.352006,19.5229208 L161.352006,17.3623207 L158.901006,17.3623207 L158.901006,19.5229208 Z M157.814406,13.9927206 L158.197806,13.9927206 C159.162606,13.9927206 159.469206,13.6555205 159.469206,12.6751205 L159.469206,10.5151204 L161.920206,10.5151204 L161.920206,12.9211205 C161.920206,15.2485206 160.617606,16.4437207 158.503806,16.4437207 L157.814406,16.4437207 L157.814406,13.9927206 Z" id="Fill-40" fill="#FFFFFF" mask="url(#mask-2)"></path>
                <path d="M165.059467,16.4436007 C163.849867,16.4436007 163.129266,16.0758006 162.363666,15.2796006 L163.972267,13.3806005 C164.217067,13.7322005 164.599867,13.9926006 165.228067,13.9926006 L167.157667,13.9926006 C167.632867,13.9926006 167.909467,13.8240005 167.909467,13.3806005 C167.909467,13.1502005 167.847067,12.8586005 167.694667,12.5220005 L166.422667,9.67200038 L168.721267,8.66160034 L170.053867,11.7096005 C170.436067,12.5832005 170.513467,13.1964005 170.513467,13.6398005 C170.513467,15.6474006 169.073467,16.4436007 167.663467,16.4436007 L165.059467,16.4436007 Z" id="Fill-41" fill="#FFFFFF" mask="url(#mask-2)"></path>
                <path d="M180.152407,21.5293209 L182.603407,21.5293209 L182.603407,19.3693208 L180.152407,19.3693208 L180.152407,21.5293209 Z M177.165007,21.5293209 L179.616007,21.5293209 L179.616007,19.3693208 L177.165007,19.3693208 L177.165007,21.5293209 Z M185.850607,13.9927206 L185.850607,16.4437207 L185.238607,16.4437207 C185.115007,16.4437207 184.947007,16.3975207 184.762807,16.3369206 C184.579807,17.5465207 183.645007,18.5887207 181.761007,18.5887207 L178.420807,18.5887207 C175.556407,18.5887207 174.835807,16.7803207 174.835807,15.0037206 L174.835807,13.4407205 L177.241207,13.4407205 L177.241207,14.4673206 C177.241207,15.6625206 177.717007,16.1371206 178.926007,16.1371206 L181.393207,16.1371206 C182.067007,16.1371206 182.404207,15.7849206 182.404207,15.1417206 C182.404207,14.7283206 182.266807,14.3143206 182.020807,13.9015206 L181.301407,12.6751205 L183.997207,12.6751205 L184.411207,13.2721205 C184.732807,13.7485205 185.054407,13.9927206 185.545207,13.9927206 L185.850607,13.9927206 Z" id="Fill-42" fill="#FFFFFF" mask="url(#mask-2)"></path>
                <polygon id="Fill-43" fill="#FFFFFF" mask="url(#mask-2)" points="185.239807 16.4437207 190.371008 16.4437207 190.371008 13.9927206 185.239807 13.9927206"></polygon>
                <polygon id="Fill-44" fill="#FFFFFF" mask="url(#mask-2)" points="189.759608 16.4437207 194.890808 16.4437207 194.890808 13.9927206 189.759608 13.9927206"></polygon>
                <polygon id="Fill-45" fill="#FFFFFF" mask="url(#mask-2)" points="194.279408 16.4437207 199.410608 16.4437207 199.410608 13.9927206 194.279408 13.9927206"></polygon>
                <polygon id="Fill-46" fill="#FFFFFF" mask="url(#mask-2)" points="198.799208 16.4437207 203.930408 16.4437207 203.930408 13.9927206 198.799208 13.9927206"></polygon>
                <polygon id="Fill-47" fill="#FFFFFF" mask="url(#mask-2)" points="203.319608 16.4437207 208.450808 16.4437207 208.450808 13.9927206 203.319608 13.9927206"></polygon>
                <polygon id="Fill-48" fill="#FFFFFF" mask="url(#mask-2)" points="207.839408 16.4437207 212.970608 16.4437207 212.970608 13.9927206 207.839408 13.9927206"></polygon>
                <polygon id="Fill-49" fill="#FFFFFF" mask="url(#mask-2)" points="212.359808 16.4437207 217.491609 16.4437207 217.491609 13.9927206 212.359808 13.9927206"></polygon>
                <path d="M225.412809,11.5416605 L225.412809,14.1300606 L224.739009,14.1300606 C224.279409,14.1300606 223.896009,14.2230606 223.390809,14.6046606 L222.210609,15.5094606 C221.506809,16.0452606 220.633209,16.4436607 219.040209,16.4436607 L216.879609,16.4436607 L216.879609,13.9926606 L219.361809,13.9926606 C220.065609,13.9926606 220.571409,13.8546606 220.954809,13.5792605 L221.323209,13.3032605 C221.551809,13.1190605 221.797809,12.9966605 222.073209,12.8898605 C221.766609,12.8124605 221.551809,12.6906605 221.338209,12.5220605 L220.924209,12.2004605 C220.602009,11.9400605 220.280409,11.7408605 219.775209,11.7408605 C219.253809,11.7408605 218.856009,11.9700605 218.488209,12.3066605 L217.431609,10.5456604 C218.059809,9.74946039 218.887209,9.27486037 220.036209,9.27486037 C221.030409,9.27486037 221.720409,9.59646038 222.394809,10.1622604 L223.436409,11.0208604 C223.819209,11.3418605 224.279409,11.5416605 224.754009,11.5416605 L225.412809,11.5416605 Z" id="Fill-50" fill="#FFFFFF" mask="url(#mask-2)"></path>
                <path d="M7.13040028,14.2603206 L14.2608006,14.2603206 L14.2608006,7.12992028 L7.13040028,7.12992028 L7.13040028,14.2603206 Z M0,21.3907208 L21.3906008,21.3907208 L21.3906008,0.000120000005 L0,0.000120000005 L0,21.3907208 Z" id="Fill-51" fill="#FFFFFF" mask="url(#mask-2)"></path>
                <polygon id="Fill-52" fill="#FFFFFF" mask="url(#mask-2)" points="35.6514014 42.7819217 42.7818017 42.7819217 42.7818017 21.3907208 35.6514014 21.3907208"></polygon>
                <polygon id="Fill-53" fill="#FFFFFF" mask="url(#mask-2)" points="21.3912009 42.7819217 28.5216011 42.7819217 28.5216011 21.3907208 21.3912009 21.3907208"></polygon>
                <path d="M10.6954204,35.6518214 C8.72682035,35.6518214 7.13082028,34.0552214 7.13082028,32.0866213 C7.13082028,30.1174212 8.72682035,28.5214211 10.6954204,28.5214211 C12.6646205,28.5214211 14.2606206,30.1174212 14.2606206,32.0866213 C14.2606206,34.0552214 12.6646205,35.6518214 10.6954204,35.6518214 M10.6954204,21.3904208 C4.78842019,21.3904208 0.000420000017,26.179621 0.000420000017,32.0866213 C0.000420000017,37.9930215 4.78842019,42.7822217 10.6954204,42.7822217 C16.6024207,42.7822217 21.3910209,37.9930215 21.3910209,32.0866213 C21.3910209,26.179621 16.6024207,21.3904208 10.6954204,21.3904208" id="Fill-54" fill="#FFFFFF" mask="url(#mask-2)"></path>
                <polygon id="Fill-55" fill="#FFFFFF" mask="url(#mask-2)" points="36.6300015 6.15192024 39.6762016 6.15192024 39.6762016 3.10632012 36.6300015 3.10632012"></polygon>
                <polygon id="Fill-56" fill="#FFFFFF" mask="url(#mask-2)" points="36.6300015 12.2437205 39.6762016 12.2437205 39.6762016 9.19752037 36.6300015 9.19752037"></polygon>
                <polygon id="Fill-57" fill="#FFFFFF" mask="url(#mask-2)" points="36.6300015 18.3349207 39.6762016 18.3349207 39.6762016 15.2893206 36.6300015 15.2893206"></polygon>
                <polygon id="Fill-58" fill="#FFFFFF" mask="url(#mask-2)" points="30.5388012 6.15192024 33.5844013 6.15192024 33.5844013 3.10632012 30.5388012 3.10632012"></polygon>
                <polygon id="Fill-59" fill="#FFFFFF" mask="url(#mask-2)" points="30.5388012 12.2437205 33.5844013 12.2437205 33.5844013 9.19752037 30.5388012 9.19752037"></polygon>
                <polygon id="Fill-60" fill="#FFFFFF" mask="url(#mask-2)" points="30.5388012 18.3349207 33.5844013 18.3349207 33.5844013 15.2893206 30.5388012 15.2893206"></polygon>
                <polygon id="Fill-61" fill="#FFFFFF" mask="url(#mask-2)" points="24.447001 6.15192024 27.4926011 6.15192024 27.4926011 3.10632012 24.447001 3.10632012"></polygon>
                <polygon id="Fill-62" fill="#FFFFFF" mask="url(#mask-2)" points="24.447001 12.2437205 27.4926011 12.2437205 27.4926011 9.19752037 24.447001 9.19752037"></polygon>
                <polygon id="Fill-63" fill="#FFFFFF" mask="url(#mask-2)" points="24.447001 18.3349207 27.4926011 18.3349207 27.4926011 15.2893206 24.447001 15.2893206"></polygon>
            </g>
        </g>
    </g>
</svg>