<svg width="43" height="43" viewBox="0 0 43 43" fill="none" xmlns="http://www.w3.org/2000/svg">
<path fill-rule="evenodd" clip-rule="evenodd" d="M7.1304 14.2602H14.2608V7.1298H7.1304V14.2602ZM0 21.3906H21.3906V0H0V21.3906Z" fill="white"/>
<path fill-rule="evenodd" clip-rule="evenodd" d="M35.6514 42.7818H42.7818V21.3906H35.6514V42.7818Z" fill="white"/>
<path fill-rule="evenodd" clip-rule="evenodd" d="M21.3911 42.7818H28.5215V21.3906H21.3911V42.7818Z" fill="white"/>
<path fill-rule="evenodd" clip-rule="evenodd" d="M10.6955 35.6515C8.72689 35.6515 7.13089 34.0549 7.13089 32.0863C7.13089 30.1171 8.72689 28.5211 10.6955 28.5211C12.6647 28.5211 14.2607 30.1171 14.2607 32.0863C14.2607 34.0549 12.6647 35.6515 10.6955 35.6515ZM10.6955 21.3901C4.78849 21.3901 0.000488281 26.1793 0.000488281 32.0863C0.000488281 37.9927 4.78849 42.7819 10.6955 42.7819C16.6025 42.7819 21.3911 37.9927 21.3911 32.0863C21.3911 26.1793 16.6025 21.3901 10.6955 21.3901Z" fill="white"/>
<path fill-rule="evenodd" clip-rule="evenodd" d="M36.6299 6.15156H39.6761V3.10596H36.6299V6.15156Z" fill="white"/>
<path fill-rule="evenodd" clip-rule="evenodd" d="M36.6299 12.2435H39.6761V9.19727H36.6299V12.2435Z" fill="white"/>
<path fill-rule="evenodd" clip-rule="evenodd" d="M36.6299 18.3347H39.6761V15.2891H36.6299V18.3347Z" fill="white"/>
<path fill-rule="evenodd" clip-rule="evenodd" d="M30.5386 6.15156H33.5842V3.10596H30.5386V6.15156Z" fill="white"/>
<path fill-rule="evenodd" clip-rule="evenodd" d="M30.5386 12.2435H33.5842V9.19727H30.5386V12.2435Z" fill="white"/>
<path fill-rule="evenodd" clip-rule="evenodd" d="M30.5386 18.3347H33.5842V15.2891H30.5386V18.3347Z" fill="white"/>
<path fill-rule="evenodd" clip-rule="evenodd" d="M24.4468 6.15156H27.4924V3.10596H24.4468V6.15156Z" fill="white"/>
<path fill-rule="evenodd" clip-rule="evenodd" d="M24.4468 12.2435H27.4924V9.19727H24.4468V12.2435Z" fill="white"/>
<path fill-rule="evenodd" clip-rule="evenodd" d="M24.4468 18.3347H27.4924V15.2891H24.4468V18.3347Z" fill="white"/>
</svg>
